<svg width="300" height="300" viewBox="0 0 300 300" fill="none" xmlns="http://www.w3.org/2000/svg">
<mask id="mask0_305_91" style="mask-type:alpha" maskUnits="userSpaceOnUse" x="0" y="0" width="300" height="300">
<circle cx="150" cy="150" r="150" fill="#FF2121"/>
</mask>
<g mask="url(#mask0_305_91)">
<circle cx="150" cy="150" r="150" fill="#D9D9D9"/>
<path d="M132.015 138.506L263.159 155.02L150 170.495L41.1222 155.427L132.015 138.506Z" fill="url(#paint0_linear_305_91)" stroke="#B3B3B3"/>
<rect x="132" y="138" width="1" height="136" fill="#B3B3B3"/>
<rect width="112" height="129.004" transform="matrix(1 0 0.00820296 0.999966 38.4692 171.49)" fill="url(#paint1_linear_305_91)"/>
<rect width="112" height="129.004" transform="matrix(1 0 0.00820296 0.999966 150.469 171.49)" fill="url(#paint2_linear_305_91)"/>
<circle cx="77.5002" cy="160.5" r="7.5" transform="rotate(16.2797 77.5002 160.5)" fill="url(#paint3_linear_305_91)"/>
<path d="M189.333 153.362L193.34 159.423L200.342 157.486L195.816 163.169L199.822 169.23L193.018 166.681L188.492 172.365L188.813 165.106L182.01 162.558L189.012 160.62L189.333 153.362Z" fill="url(#paint4_linear_305_91)"/>
<path d="M149.5 171L267.373 155.157L282.958 187.856L170.02 215.531L149.5 171Z" fill="url(#paint5_linear_305_91)"/>
<path d="M37.5 155.5L150 171L123.37 215.564L14.4002 186.574L37.5 155.5Z" fill="url(#paint6_linear_305_91)"/>
</g>
<circle cx="177" cy="81" r="5" fill="url(#paint7_linear_305_91)"/>
<circle cx="257.5" cy="137.5" r="3.5" fill="url(#paint8_linear_305_91)"/>
<circle cx="123" cy="42" r="6" fill="url(#paint9_linear_305_91)"/>
<circle cx="221" cy="112" r="10" fill="url(#paint10_linear_305_91)"/>
<path d="M85.0157 84.6595L87.6571 88.6375L92.7544 87.3918L89.2896 91.0961L91.931 95.0741L87.1483 93.3854L83.6835 97.0897L84.1924 92.3418L79.4096 90.6531L84.5069 89.4074L85.0157 84.6595Z" fill="url(#paint11_linear_305_91)"/>
<path d="M78.8571 48.187L80.6857 50.941L84.2146 50.0786L81.8159 52.6431L83.6446 55.3972L80.3334 54.2281L77.9347 56.7926L78.287 53.5055L74.9759 52.3365L78.5048 51.474L78.8571 48.187Z" fill="url(#paint12_linear_305_91)"/>
<path d="M220.429 72.7805L221.343 74.1575L223.107 73.7263L221.908 75.0086L222.822 76.3856L221.167 75.801L219.967 77.0833L220.144 75.4398L218.488 74.8552L220.252 74.424L220.429 72.7805Z" fill="url(#paint13_linear_305_91)"/>
<path d="M152 99L154.245 105.91H161.511L155.633 110.18L157.878 117.09L152 112.82L146.122 117.09L148.367 110.18L142.489 105.91H149.755L152 99Z" fill="url(#paint14_linear_305_91)"/>
<path d="M221.813 48.7244L221.76 54.1732L226.926 55.9078L221.727 57.5407L221.674 62.9895L218.514 58.55L213.315 60.1829L216.561 55.8061L213.402 51.3666L218.568 53.1011L221.813 48.7244Z" fill="url(#paint15_linear_305_91)"/>
<defs>
<linearGradient id="paint0_linear_305_91" x1="38" y1="155" x2="182.348" y2="127.278" gradientUnits="userSpaceOnUse">
<stop stop-color="#D9D9D9"/>
<stop offset="1" stop-color="#737373"/>
</linearGradient>
<linearGradient id="paint1_linear_305_91" x1="83.4355" y1="133.514" x2="22.3434" y2="-64.5801" gradientUnits="userSpaceOnUse">
<stop stop-color="#D9D9D9"/>
<stop offset="1" stop-color="#737373"/>
</linearGradient>
<linearGradient id="paint2_linear_305_91" x1="83.4355" y1="133.514" x2="22.3434" y2="-64.5801" gradientUnits="userSpaceOnUse">
<stop stop-color="#D9D9D9"/>
<stop offset="1" stop-color="#737373"/>
</linearGradient>
<linearGradient id="paint3_linear_305_91" x1="81.1746" y1="168.524" x2="74.8726" y2="144.988" gradientUnits="userSpaceOnUse">
<stop stop-color="#D9D9D9"/>
<stop offset="1" stop-color="#737373"/>
</linearGradient>
<linearGradient id="paint4_linear_305_91" x1="199.575" y1="172.005" x2="183.108" y2="144" gradientUnits="userSpaceOnUse">
<stop stop-color="#D9D9D9"/>
<stop offset="1" stop-color="#737373"/>
</linearGradient>
<linearGradient id="paint5_linear_305_91" x1="261.36" y1="211.016" x2="243.608" y2="119.477" gradientUnits="userSpaceOnUse">
<stop stop-color="#D9D9D9"/>
<stop offset="1" stop-color="#737373"/>
</linearGradient>
<linearGradient id="paint6_linear_305_91" x1="95.0123" y1="215.471" x2="91.4897" y2="129.618" gradientUnits="userSpaceOnUse">
<stop stop-color="#D9D9D9"/>
<stop offset="1" stop-color="#737373"/>
</linearGradient>
<linearGradient id="paint7_linear_305_91" x1="179.45" y1="86.3496" x2="175.248" y2="70.6584" gradientUnits="userSpaceOnUse">
<stop stop-color="#D9D9D9"/>
<stop offset="1" stop-color="#737373"/>
</linearGradient>
<linearGradient id="paint8_linear_305_91" x1="259.215" y1="141.245" x2="256.274" y2="130.261" gradientUnits="userSpaceOnUse">
<stop stop-color="#D9D9D9"/>
<stop offset="1" stop-color="#737373"/>
</linearGradient>
<linearGradient id="paint9_linear_305_91" x1="125.94" y1="48.4195" x2="120.898" y2="29.59" gradientUnits="userSpaceOnUse">
<stop stop-color="#D9D9D9"/>
<stop offset="1" stop-color="#737373"/>
</linearGradient>
<linearGradient id="paint10_linear_305_91" x1="225.899" y1="122.699" x2="217.497" y2="91.3167" gradientUnits="userSpaceOnUse">
<stop stop-color="#D9D9D9"/>
<stop offset="1" stop-color="#737373"/>
</linearGradient>
<linearGradient id="paint11_linear_305_91" x1="91.647" y1="96.8893" x2="81.9055" y2="78.0007" gradientUnits="userSpaceOnUse">
<stop stop-color="#D9D9D9"/>
<stop offset="1" stop-color="#737373"/>
</linearGradient>
<linearGradient id="paint12_linear_305_91" x1="83.4479" y1="56.6538" x2="76.7038" y2="43.5771" gradientUnits="userSpaceOnUse">
<stop stop-color="#D9D9D9"/>
<stop offset="1" stop-color="#737373"/>
</linearGradient>
<linearGradient id="paint13_linear_305_91" x1="222.724" y1="77.0139" x2="219.352" y2="70.4756" gradientUnits="userSpaceOnUse">
<stop stop-color="#D9D9D9"/>
<stop offset="1" stop-color="#737373"/>
</linearGradient>
<linearGradient id="paint14_linear_305_91" x1="156.899" y1="119.699" x2="148.497" y2="88.3167" gradientUnits="userSpaceOnUse">
<stop stop-color="#D9D9D9"/>
<stop offset="1" stop-color="#737373"/>
</linearGradient>
<linearGradient id="paint15_linear_305_91" x1="220.355" y1="64.6108" x2="221.873" y2="40.2923" gradientUnits="userSpaceOnUse">
<stop stop-color="#D9D9D9"/>
<stop offset="1" stop-color="#737373"/>
</linearGradient>
</defs>
</svg>
