<svg width="470" height="420" viewBox="0 0 470 420" fill="none" xmlns="http://www.w3.org/2000/svg">
<circle cx="215" cy="210" r="206" fill="#E9E9E9"/>
<circle cx="215" cy="210" r="206" fill="url(#paint0_linear_304_34)" fill-opacity="0.2"/>
<circle cx="215" cy="210" r="206" stroke="#AFAFAF" stroke-width="8"/>
<path d="M374.498 288.608C377.588 286.445 379.646 283.369 381.449 278.927C383.245 274.504 384.81 268.672 386.88 260.958L386.889 260.923L426.657 112.712L426.668 112.67C429.524 102.026 431.68 93.9889 432.449 87.6588C433.22 81.3064 432.606 76.5806 429.831 72.6153C427.055 68.6501 422.825 66.4556 416.592 65.0054C410.382 63.5603 402.092 62.835 391.114 61.8746L391.07 61.8707L147.215 40.5362L147.172 40.5324C136.485 39.5974 128.414 38.8913 122.196 39.2209C115.957 39.5518 111.494 40.9288 108.089 44.2363C104.684 47.5438 103.178 51.9646 102.666 58.1922C102.156 64.397 102.627 72.4845 103.251 83.1933L103.254 83.2384L112.14 235.705L112.142 235.743C112.62 243.94 112.981 250.137 113.875 254.949C114.773 259.783 116.218 263.283 118.906 266.05C121.594 268.818 125.05 270.364 129.856 271.402C134.641 272.435 140.825 272.976 149.004 273.692L149.042 273.695L344.243 290.773L344.28 290.776C352.236 291.472 358.252 291.998 363.022 291.825C367.813 291.651 371.408 290.77 374.498 288.608Z" fill="#F0F0F0" stroke="url(#paint1_linear_304_34)"/>
<path d="M312.974 275.828C315.641 273.162 317.134 269.775 318.139 265.087C319.14 260.42 319.668 254.405 320.367 246.448L320.37 246.412L333.797 93.55L333.8 93.5061C334.765 82.5284 335.493 74.2389 335.15 67.8715C334.806 61.4817 333.381 56.9342 329.96 53.5112C326.538 50.0881 321.991 48.6616 315.601 48.3156C309.234 47.9709 300.944 48.6962 289.966 49.6566L289.922 49.6605L46.0681 70.9949L46.0249 70.9987C35.3378 71.9337 27.2668 72.6398 21.2012 74.0441C15.1136 75.4535 10.9578 77.5846 8.1789 81.4331C5.39999 85.2816 4.68445 89.8967 5.26166 96.1186C5.83683 102.318 7.70553 110.202 10.18 120.64L10.19 120.682L45.4162 269.288L45.4248 269.324C47.3187 277.313 48.7505 283.354 50.4665 287.938C52.1901 292.542 54.2209 295.738 57.3489 297.996C60.4769 300.255 64.149 301.178 69.0619 301.365C73.9533 301.552 80.1371 301.011 88.3169 300.295L88.354 300.292L283.555 283.214L283.592 283.211C291.548 282.515 297.564 281.989 302.231 280.99C306.919 279.986 310.307 278.495 312.974 275.828Z" fill="#F0F0F0" stroke="url(#paint2_linear_304_34)"/>
<g filter="url(#filter0_d_304_34)">
<path d="M365.374 312.721C362.582 328.511 361.187 336.405 355.611 341.082C350.036 345.758 342.019 345.758 325.984 345.758H102.561C86.0776 345.758 77.8358 345.758 72.2033 340.891C66.5709 336.024 65.3754 327.869 62.9843 311.56L37.3284 136.56C34.2052 115.257 32.6436 104.605 38.6263 97.6816C44.609 90.7579 55.3745 90.7579 76.9053 90.7579L356.922 90.7579C379.038 90.7579 390.097 90.7579 396.091 97.9055C402.086 105.053 400.161 115.943 396.311 137.721L365.374 312.721Z" fill="white"/>
</g>
<rect x="304.614" y="291.758" width="148" height="12" rx="5" transform="rotate(-180 304.614 291.758)" fill="#D9D9D9"/>
<rect x="349.614" y="272.758" width="193" height="12" rx="5" transform="rotate(-180 349.614 272.758)" fill="#D9D9D9"/>
<path fill-rule="evenodd" clip-rule="evenodd" d="M108.849 289.083L138.196 265.004L130.585 255.727L101.074 279.94L91.953 269.215L83.6411 276.285L92.6373 286.862L92.6303 286.868L100.242 296.145L100.413 296.005L100.661 296.297L108.973 289.228L108.849 289.083Z" fill="#D9D9D9"/>
<rect x="307.614" y="235.25" width="148" height="12" rx="5" transform="rotate(-180 307.614 235.25)" fill="#D9D9D9"/>
<rect x="352.614" y="216.25" width="193" height="12" rx="5" transform="rotate(-180 352.614 216.25)" fill="#D9D9D9"/>
<path fill-rule="evenodd" clip-rule="evenodd" d="M111.849 232.575L141.196 208.496L133.585 199.219L104.074 223.433L94.953 212.708L86.6411 219.777L95.6373 230.355L95.6303 230.36L103.242 239.637L103.413 239.497L103.661 239.789L111.973 232.72L111.849 232.575Z" fill="#D9D9D9"/>
<rect x="307.614" y="179.25" width="148" height="12" rx="5" transform="rotate(-180 307.614 179.25)" fill="#D9D9D9"/>
<rect x="352.614" y="160.25" width="193" height="12" rx="5" transform="rotate(-180 352.614 160.25)" fill="#D9D9D9"/>
<path fill-rule="evenodd" clip-rule="evenodd" d="M111.849 176.575L141.196 152.496L133.585 143.219L104.074 167.433L94.953 156.708L86.6411 163.777L95.6373 174.355L95.6303 174.36L103.242 183.637L103.413 183.497L103.661 183.789L111.973 176.72L111.849 176.575Z" fill="#D9D9D9"/>
<circle cx="331.998" cy="106" r="65" fill="#F0F0F0" stroke="#AFAFAF" stroke-width="10"/>
<circle cx="331.998" cy="106" r="60" fill="url(#paint3_linear_304_34)"/>
<circle cx="331.998" cy="106" r="59" stroke="#AFAFAF" stroke-opacity="0.3" stroke-width="2"/>
<rect x="370.998" y="157.551" width="12" height="95" rx="6" transform="rotate(-38.9918 370.998 157.551)" fill="#AFAFAF"/>
<defs>
<filter id="filter0_d_304_34" x="24.562" y="70.7579" width="445.358" height="335" filterUnits="userSpaceOnUse" color-interpolation-filters="sRGB">
<feFlood flood-opacity="0" result="BackgroundImageFix"/>
<feColorMatrix in="SourceAlpha" type="matrix" values="0 0 0 0 0 0 0 0 0 0 0 0 0 0 0 0 0 0 127 0" result="hardAlpha"/>
<feOffset dx="30" dy="20"/>
<feGaussianBlur stdDeviation="20"/>
<feComposite in2="hardAlpha" operator="out"/>
<feColorMatrix type="matrix" values="0 0 0 0 0 0 0 0 0 0 0 0 0 0 0 0 0 0 0.12 0"/>
<feBlend mode="normal" in2="BackgroundImageFix" result="effect1_dropShadow_304_34"/>
<feBlend mode="normal" in="SourceGraphic" in2="effect1_dropShadow_304_34" result="shape"/>
</filter>
<linearGradient id="paint0_linear_304_34" x1="391.4" y1="374.85" x2="231.158" y2="340.872" gradientUnits="userSpaceOnUse">
<stop/>
<stop offset="1" stop-color="white" stop-opacity="0.3"/>
</linearGradient>
<linearGradient id="paint1_linear_304_34" x1="388.614" y1="180.758" x2="248.614" y2="63.7579" gradientUnits="userSpaceOnUse">
<stop stop-color="#DCDCDC"/>
<stop offset="1" stop-color="#767676" stop-opacity="0"/>
</linearGradient>
<linearGradient id="paint2_linear_304_34" x1="163.114" y1="261.758" x2="209.614" y2="111.758" gradientUnits="userSpaceOnUse">
<stop stop-color="#DCDCDC"/>
<stop offset="1" stop-color="#767676" stop-opacity="0"/>
</linearGradient>
<linearGradient id="paint3_linear_304_34" x1="310.498" y1="88.5" x2="371.498" y2="150.5" gradientUnits="userSpaceOnUse">
<stop stop-color="#EBEBEB"/>
<stop offset="1" stop-color="#C8C8C8"/>
</linearGradient>
</defs>
</svg>
